<svg xmlns="http://www.w3.org/2000/svg" viewBox="0 0 240 64" role="img" aria-label="Krishna Rasoi — Satvik Food, Pure Delight">
  <!-- Peacock feather (tucked behind the tiffin) -->
  <g>
    <path d="M52.5 11 C57.5 19.5 57 30 49.5 39.5 C45 30.5 46.5 18.5 52.5 11 Z" fill="#3d6b1f"/>
    <ellipse cx="51.2" cy="25.5" rx="3.4" ry="5" fill="#1f3a10"/>
    <ellipse cx="51.2" cy="25.5" rx="2.1" ry="3.3" fill="#8fbc5a"/>
    <circle cx="51.2" cy="25.8" r="1.2" fill="#e8751a"/>
    <path d="M49.5 39 Q47 44 44.5 47" fill="none" stroke="#3d6b1f" stroke-width="1.6" stroke-linecap="round"/>
  </g>
  <!-- Tiffin carrier -->
  <path d="M20 24 a8 8 0 0 1 16 0" fill="none" stroke="#2d5016" stroke-width="3" stroke-linecap="round"/>
  <g fill="#e8751a">
    <rect x="14" y="26" width="28" height="9" rx="4.5"/>
    <rect x="11.5" y="37.5" width="33" height="10" rx="5"/>
    <rect x="9" y="50" width="38" height="11" rx="5.5"/>
  </g>
  <g fill="#fff" opacity="0.3">
    <rect x="18" y="27.8" width="20" height="2.4" rx="1.2"/>
    <rect x="16" y="39.4" width="24" height="2.6" rx="1.3"/>
    <rect x="14" y="52" width="28" height="2.8" rx="1.4"/>
  </g>
  <!-- Wordmark -->
  <text x="64" y="33" font-family="Georgia, 'Noto Serif', 'Times New Roman', serif" font-size="21" font-weight="700" fill="#2d5016">Krishna Rasoi</text>
  <text x="65" y="51" font-family="Inter, system-ui, sans-serif" font-size="8.5" font-weight="600" fill="#c9620f" letter-spacing="0.13em">SATVIK FOOD · PURE DELIGHT</text>
</svg>
